<svg height="512" viewBox="0 0 497 497" width="512" xmlns="http://www.w3.org/2000/svg">
    <!-- Le sun -->
    <circle fill="#ffd900" cx="248.5" cy="248.5" r="149.1"/>
    <!-- Sun shading -->
    <path fill="#fb0" d="m248.5 99.4c-3.87 0-7.705.148-11.5.437 76.972 5.871 137.6 70.187 137.6 148.663s-60.628 142.792-137.6 148.663c3.795.289 7.63.438 11.5.438 82.346 0 149.1-66.754 149.1-149.1s-66.754-149.101-149.1-149.101z"/>

    <g id="arrow">
        <!-- ray -->
        <path fill="#ffd900" d="m447.3 231.933c-9.149 0-16.567 7.417-16.567 16.567s7.417 16.567 16.567 16.567h33.133c9.15 0 16.567-7.417 16.567-16.567s-7.417-16.567-16.567-16.567z"/>
        <!-- ray shading -->
        <path fill="#fb0" d="m480.433 231.933h-23c9.15 0 16.567 7.417 16.567 16.567 0 9.149-7.417 16.567-16.567 16.567h23c9.15 0 16.567-7.417 16.567-16.567 0-9.149-7.417-16.567-16.567-16.567z"/>
    </g>
    <!-- arrow -->
    <path fill="red" style="transform: scale(.3)" d="M405.284,201.188L130.804,13.28C118.128,4.596,105.356,0,94.74,0C74.216,0,61.52,16.472,61.52,44.044v406.124
			c0,27.54,12.68,43.98,33.156,43.98c10.632,0,23.2-4.6,35.904-13.308l274.608-187.904c17.66-12.104,27.44-28.392,27.44-45.884
			C432.632,229.572,422.964,213.288,405.284,201.188z"/>
</svg>
