<svg height="512" viewBox="0 0 497 497" width="512" xmlns="http://www.w3.org/2000/svg">
    <g fill="#ffd900">
        <circle cx="248.5" cy="248.5" r="149.1"/>
        <path d="m447.3 231.933c-9.149 0-16.567 7.417-16.567 16.567s7.417 16.567 16.567 16.567h33.133c9.15 0 16.567-7.417 16.567-16.567s-7.417-16.567-16.567-16.567z"/>
        <path d="m16.567 231.933c-9.15 0-16.567 7.417-16.567 16.567s7.417 16.567 16.567 16.567h33.133c9.149 0 16.567-7.417 16.567-16.567s-7.417-16.567-16.567-16.567z"/>
        <path d="m377.358 96.213c-6.47 6.47-6.47 16.959 0 23.429s16.959 6.47 23.429 0l23.429-23.429c6.47-6.47 6.47-16.959 0-23.429s-16.959-6.47-23.429 0z"/>
        <path d="m72.784 400.787c-6.47 6.47-6.47 16.959 0 23.429s16.959 6.47 23.429 0l23.429-23.429c6.47-6.47 6.47-16.959 0-23.429s-16.959-6.47-23.429 0z"/>
        <path d="m400.787 377.358c-6.47-6.47-16.959-6.47-23.429 0s-6.47 16.959 0 23.429l23.429 23.429c6.47 6.47 16.959 6.47 23.429 0s6.47-16.959 0-23.429z"/>
        <path d="m96.213 72.784c-6.47-6.47-16.959-6.47-23.429 0s-6.47 16.959 0 23.429l23.429 23.429c6.47 6.47 16.959 6.47 23.429 0s6.47-16.959 0-23.429z"/>
    </g>
    <g fill="#fb0">
        <!-- First one is shading -->
        <path d="m248.5 99.4c-3.87 0-7.705.148-11.5.437 76.972 5.871 137.6 70.187 137.6 148.663s-60.628 142.792-137.6 148.663c3.795.289 7.63.438 11.5.438 82.346 0 149.1-66.754 149.1-149.1s-66.754-149.101-149.1-149.101z"/>

        <!-- Left and Right one -->
        <path d="m49.7 231.933h-23c9.149 0 16.567 7.417 16.567 16.567 0 9.149-7.417 16.567-16.567 16.567h23c9.149 0 16.567-7.417 16.567-16.567 0-9.149-7.418-16.567-16.567-16.567z"/>
        <path d="m480.433 231.933h-23c9.15 0 16.567 7.417 16.567 16.567 0 9.149-7.417 16.567-16.567 16.567h23c9.15 0 16.567-7.417 16.567-16.567 0-9.149-7.417-16.567-16.567-16.567z"/>

        <!-- top right -->
        <path d="m424.216 72.784c-6.401-6.401-16.73-6.458-23.214-.194.07.068.145.125.214.194 6.47 6.47 6.47 16.959 0 23.429l-23.429 23.429c-.069.069-.145.126-.214.194 6.485 6.264 16.814 6.207 23.214-.194l23.429-23.429c6.47-6.47 6.47-16.959 0-23.429z"/>
        <!-- bot right -->
        <path d="m424.216 400.787-23.429-23.429c-6.401-6.401-16.73-6.458-23.214-.194.07.067.145.125.214.194l23.429 23.429c6.47 6.47 6.47 16.959 0 23.429-.069.069-.145.126-.214.194 6.484 6.265 16.813 6.207 23.214-.194 6.47-6.47 6.47-16.959 0-23.429z"/>
        <!-- top left -->
        <path d="m119.642 96.213-23.429-23.429c-6.393-6.393-16.703-6.457-23.189-.216.078.075.163.139.239.216l23.429 23.429c6.47 6.47 6.47 16.959 0 23.429-.077.077-.161.141-.239.216 6.486 6.241 16.797 6.176 23.189-.216 6.469-6.47 6.469-16.96 0-23.429z"/>
        <!-- bot left -->
        <path d="m119.642 377.358c-6.393-6.393-16.703-6.457-23.189-.216.078.075.162.139.239.216 6.47 6.47 6.47 16.959 0 23.429l-23.429 23.429c-.077.077-.161.141-.239.216 6.486 6.241 16.797 6.176 23.189-.216l23.429-23.429c6.469-6.47 6.469-16.959 0-23.429z"/>
    </g>
</svg>
